<?xml version="1.0" encoding="utf-8"?>
<!-- Generator: Adobe Illustrator 22.1.0, SVG Export Plug-In . SVG Version: 6.00 Build 0)  -->
<svg version="1.1" id="Layer_1" xmlns="http://www.w3.org/2000/svg" xmlns:xlink="http://www.w3.org/1999/xlink" x="0px" y="0px"
	 viewBox="0 0 640 169" style="enable-background:new 0 0 640 169;" xml:space="preserve">
<style type="text/css">
	.st0{display:none;fill:none;stroke:#C27B13;stroke-width:41;stroke-miterlimit:10;}
	.st1{fill:#C27B13;}
</style>
<path class="st0" d="M640,37.5"/>
<path class="st0" d="M0,37.5"/>
<path class="st1" d="M628,169H12c-6.6,0-12-5.4-12-12v-20c0-6.6,5.4-12,12-12h616c6.6,0,12,5.4,12,12v20
	C640,163.6,634.6,169,628,169z"/>
<path class="st1" d="M628,44H12C5.4,44,0,38.6,0,32V12C0,5.4,5.4,0,12,0h616c6.6,0,12,5.4,12,12v20C640,38.6,634.6,44,628,44z"/>
</svg>
